<mxfile host="app.diagrams.net" agent="Mozilla/5.0 (Windows NT 10.0; Win64; x64) AppleWebKit/537.36 (KHTML, like Gecko) Chrome/136.0.0.0 Safari/537.36" version="27.0.9">
  <diagram name="Page-1" id="c7558073-3199-34d8-9f00-42111426c3f3">
    <mxGraphModel grid="1" page="1" gridSize="10" guides="1" tooltips="1" connect="1" arrows="1" fold="1" pageScale="1" pageWidth="826" pageHeight="1169" background="none" math="0" shadow="0">
      <root>
        <mxCell id="0" />
        <mxCell id="1" parent="0" />
        <mxCell id="lFiYnILtrFlmr6bZS0Fi-40" style="edgeStyle=orthogonalEdgeStyle;rounded=1;orthogonalLoop=1;jettySize=auto;html=1;entryX=0;entryY=0.5;entryDx=0;entryDy=0;labelBackgroundColor=none;strokeColor=#0B4D6A;fontColor=default;" edge="1" parent="1" target="lFiYnILtrFlmr6bZS0Fi-32">
          <mxGeometry relative="1" as="geometry">
            <mxPoint x="410" y="80" as="targetPoint" />
            <Array as="points">
              <mxPoint x="-20" y="80" />
            </Array>
            <mxPoint x="-20" y="140" as="sourcePoint" />
          </mxGeometry>
        </mxCell>
        <mxCell id="lFiYnILtrFlmr6bZS0Fi-2" value="POWER&amp;nbsp;" style="shape=parallelogram;perimeter=parallelogramPerimeter;whiteSpace=wrap;html=1;fixedSize=1;rounded=1;labelBackgroundColor=none;fillColor=#0050ef;strokeColor=#001DBC;fontColor=#ffffff;" vertex="1" parent="1">
          <mxGeometry x="100" y="320" width="120" height="60" as="geometry" />
        </mxCell>
        <mxCell id="lFiYnILtrFlmr6bZS0Fi-3" value="VOLTAGE" style="shape=hexagon;perimeter=hexagonPerimeter2;whiteSpace=wrap;html=1;fixedSize=1;rounded=1;labelBackgroundColor=none;fillColor=#60a917;strokeColor=#2D7600;fontColor=#ffffff;" vertex="1" parent="1">
          <mxGeometry x="90" y="200" width="120" height="80" as="geometry" />
        </mxCell>
        <mxCell id="lFiYnILtrFlmr6bZS0Fi-4" value="CURRENT" style="shape=hexagon;perimeter=hexagonPerimeter2;whiteSpace=wrap;html=1;fixedSize=1;rounded=1;labelBackgroundColor=none;fillColor=#a20025;strokeColor=#6F0000;fontColor=#ffffff;" vertex="1" parent="1">
          <mxGeometry x="110" y="400" width="120" height="80" as="geometry" />
        </mxCell>
        <mxCell id="lFiYnILtrFlmr6bZS0Fi-12" style="edgeStyle=orthogonalEdgeStyle;rounded=1;orthogonalLoop=1;jettySize=auto;html=1;labelBackgroundColor=none;strokeColor=#0B4D6A;fontColor=default;" edge="1" parent="1" source="lFiYnILtrFlmr6bZS0Fi-4" target="lFiYnILtrFlmr6bZS0Fi-10">
          <mxGeometry relative="1" as="geometry">
            <mxPoint x="370" y="413" as="targetPoint" />
            <Array as="points">
              <mxPoint x="305" y="440" />
              <mxPoint x="305" y="410" />
            </Array>
          </mxGeometry>
        </mxCell>
        <mxCell id="lFiYnILtrFlmr6bZS0Fi-13" style="edgeStyle=orthogonalEdgeStyle;rounded=1;orthogonalLoop=1;jettySize=auto;html=1;exitX=1;exitY=0.5;exitDx=0;exitDy=0;entryX=-0.015;entryY=0.17;entryDx=0;entryDy=0;entryPerimeter=0;labelBackgroundColor=none;strokeColor=#0B4D6A;fontColor=default;" edge="1" parent="1" source="lFiYnILtrFlmr6bZS0Fi-3" target="lFiYnILtrFlmr6bZS0Fi-10">
          <mxGeometry relative="1" as="geometry" />
        </mxCell>
        <mxCell id="lFiYnILtrFlmr6bZS0Fi-36" style="edgeStyle=orthogonalEdgeStyle;rounded=1;orthogonalLoop=1;jettySize=auto;html=1;labelBackgroundColor=none;strokeColor=#0B4D6A;fontColor=default;" edge="1" parent="1" source="lFiYnILtrFlmr6bZS0Fi-10" target="lFiYnILtrFlmr6bZS0Fi-33">
          <mxGeometry relative="1" as="geometry" />
        </mxCell>
        <mxCell id="lFiYnILtrFlmr6bZS0Fi-43" style="edgeStyle=orthogonalEdgeStyle;rounded=1;orthogonalLoop=1;jettySize=auto;html=1;labelBackgroundColor=none;strokeColor=#0B4D6A;fontColor=default;" edge="1" parent="1" source="lFiYnILtrFlmr6bZS0Fi-10" target="lFiYnILtrFlmr6bZS0Fi-20">
          <mxGeometry relative="1" as="geometry" />
        </mxCell>
        <mxCell id="lFiYnILtrFlmr6bZS0Fi-45" style="edgeStyle=orthogonalEdgeStyle;rounded=1;orthogonalLoop=1;jettySize=auto;html=1;labelBackgroundColor=none;strokeColor=#0B4D6A;fontColor=default;" edge="1" parent="1" source="lFiYnILtrFlmr6bZS0Fi-10" target="lFiYnILtrFlmr6bZS0Fi-44">
          <mxGeometry relative="1" as="geometry" />
        </mxCell>
        <mxCell id="lFiYnILtrFlmr6bZS0Fi-60" style="edgeStyle=orthogonalEdgeStyle;rounded=1;orthogonalLoop=1;jettySize=auto;html=1;entryX=0;entryY=0.5;entryDx=0;entryDy=0;labelBackgroundColor=none;strokeColor=#0B4D6A;fontColor=default;" edge="1" parent="1" source="lFiYnILtrFlmr6bZS0Fi-10" target="lFiYnILtrFlmr6bZS0Fi-49">
          <mxGeometry relative="1" as="geometry" />
        </mxCell>
        <mxCell id="lFiYnILtrFlmr6bZS0Fi-61" style="edgeStyle=orthogonalEdgeStyle;rounded=1;orthogonalLoop=1;jettySize=auto;html=1;entryX=0;entryY=0.5;entryDx=0;entryDy=0;labelBackgroundColor=none;strokeColor=#0B4D6A;fontColor=default;" edge="1" parent="1" source="lFiYnILtrFlmr6bZS0Fi-10" target="lFiYnILtrFlmr6bZS0Fi-50">
          <mxGeometry relative="1" as="geometry" />
        </mxCell>
        <mxCell id="lFiYnILtrFlmr6bZS0Fi-63" style="edgeStyle=orthogonalEdgeStyle;rounded=1;orthogonalLoop=1;jettySize=auto;html=1;labelBackgroundColor=none;strokeColor=#0B4D6A;fontColor=default;" edge="1" parent="1" source="lFiYnILtrFlmr6bZS0Fi-10" target="lFiYnILtrFlmr6bZS0Fi-47">
          <mxGeometry relative="1" as="geometry" />
        </mxCell>
        <mxCell id="lFiYnILtrFlmr6bZS0Fi-10" value="MICROCONTROLLER" style="whiteSpace=wrap;html=1;aspect=fixed;rounded=1;labelBackgroundColor=none;fillColor=#008a00;strokeColor=#005700;fontColor=#ffffff;" vertex="1" parent="1">
          <mxGeometry x="380" y="260" width="220" height="220" as="geometry" />
        </mxCell>
        <mxCell id="lFiYnILtrFlmr6bZS0Fi-15" style="edgeStyle=orthogonalEdgeStyle;rounded=1;orthogonalLoop=1;jettySize=auto;html=1;exitX=1;exitY=0.5;exitDx=0;exitDy=0;entryX=0;entryY=0.407;entryDx=0;entryDy=0;entryPerimeter=0;labelBackgroundColor=none;strokeColor=#0B4D6A;fontColor=default;" edge="1" parent="1" source="lFiYnILtrFlmr6bZS0Fi-2" target="lFiYnILtrFlmr6bZS0Fi-10">
          <mxGeometry relative="1" as="geometry" />
        </mxCell>
        <mxCell id="lFiYnILtrFlmr6bZS0Fi-16" value="CLOUD" style="ellipse;shape=cloud;whiteSpace=wrap;html=1;rounded=1;labelBackgroundColor=none;fillColor=#008a00;strokeColor=#005700;fontColor=#ffffff;" vertex="1" parent="1">
          <mxGeometry x="870" y="50" width="120" height="80" as="geometry" />
        </mxCell>
        <mxCell id="lFiYnILtrFlmr6bZS0Fi-20" value="DISPLAY" style="rounded=1;whiteSpace=wrap;html=1;labelBackgroundColor=none;fillColor=#f0a30a;strokeColor=#BD7000;fontColor=#000000;" vertex="1" parent="1">
          <mxGeometry x="230" y="610" width="260" height="60" as="geometry" />
        </mxCell>
        <mxCell id="lFiYnILtrFlmr6bZS0Fi-42" value="" style="edgeStyle=orthogonalEdgeStyle;rounded=1;orthogonalLoop=1;jettySize=auto;html=1;labelBackgroundColor=none;strokeColor=#BD7000;fontColor=default;fillColor=#f0a30a;" edge="1" parent="1" source="lFiYnILtrFlmr6bZS0Fi-32" target="lFiYnILtrFlmr6bZS0Fi-41">
          <mxGeometry relative="1" as="geometry" />
        </mxCell>
        <mxCell id="lFiYnILtrFlmr6bZS0Fi-32" value="RELAY" style="rounded=1;whiteSpace=wrap;html=1;labelBackgroundColor=none;fillColor=#f0a30a;strokeColor=#BD7000;fontColor=#000000;" vertex="1" parent="1">
          <mxGeometry x="430" y="50" width="120" height="60" as="geometry" />
        </mxCell>
        <mxCell id="lFiYnILtrFlmr6bZS0Fi-37" style="edgeStyle=orthogonalEdgeStyle;rounded=1;orthogonalLoop=1;jettySize=auto;html=1;entryX=0.5;entryY=1;entryDx=0;entryDy=0;labelBackgroundColor=none;strokeColor=#0B4D6A;fontColor=default;" edge="1" parent="1" source="lFiYnILtrFlmr6bZS0Fi-33" target="lFiYnILtrFlmr6bZS0Fi-32">
          <mxGeometry relative="1" as="geometry" />
        </mxCell>
        <mxCell id="lFiYnILtrFlmr6bZS0Fi-33" value="UNIT LOW?" style="rhombus;whiteSpace=wrap;html=1;rounded=1;labelBackgroundColor=none;fillColor=#09555B;strokeColor=#BAC8D3;fontColor=#EEEEEE;" vertex="1" parent="1">
          <mxGeometry x="450" y="140" width="80" height="70" as="geometry" />
        </mxCell>
        <mxCell id="lFiYnILtrFlmr6bZS0Fi-41" value="LOAD" style="ellipse;whiteSpace=wrap;html=1;rounded=1;labelBackgroundColor=none;fillColor=#e51400;strokeColor=#B20000;fontColor=#ffffff;" vertex="1" parent="1">
          <mxGeometry x="652" y="40" width="80" height="80" as="geometry" />
        </mxCell>
        <mxCell id="lFiYnILtrFlmr6bZS0Fi-44" value="UNIT INDICATOR" style="rounded=1;whiteSpace=wrap;html=1;labelBackgroundColor=none;fillColor=#f0a30a;strokeColor=#BD7000;fontColor=#000000;" vertex="1" parent="1">
          <mxGeometry x="500" y="610" width="240" height="60" as="geometry" />
        </mxCell>
        <mxCell id="lFiYnILtrFlmr6bZS0Fi-67" style="edgeStyle=orthogonalEdgeStyle;rounded=1;orthogonalLoop=1;jettySize=auto;html=1;labelBackgroundColor=none;strokeColor=#0B4D6A;fontColor=default;" edge="1" parent="1" source="lFiYnILtrFlmr6bZS0Fi-47" target="lFiYnILtrFlmr6bZS0Fi-66">
          <mxGeometry relative="1" as="geometry" />
        </mxCell>
        <mxCell id="lFiYnILtrFlmr6bZS0Fi-47" value="VOLTAGE" style="ellipse;whiteSpace=wrap;html=1;rounded=1;labelBackgroundColor=none;fillColor=#60a917;strokeColor=#2D7600;fontColor=#ffffff;" vertex="1" parent="1">
          <mxGeometry x="730" y="230" width="90" height="50" as="geometry" />
        </mxCell>
        <mxCell id="lFiYnILtrFlmr6bZS0Fi-68" style="edgeStyle=orthogonalEdgeStyle;rounded=1;orthogonalLoop=1;jettySize=auto;html=1;labelBackgroundColor=none;strokeColor=#0B4D6A;fontColor=default;" edge="1" parent="1" source="lFiYnILtrFlmr6bZS0Fi-48">
          <mxGeometry relative="1" as="geometry">
            <mxPoint x="930" y="220" as="targetPoint" />
          </mxGeometry>
        </mxCell>
        <mxCell id="lFiYnILtrFlmr6bZS0Fi-48" value="CURRENT" style="ellipse;whiteSpace=wrap;html=1;rounded=1;labelBackgroundColor=none;fillColor=#a20025;strokeColor=#6F0000;fontColor=#ffffff;" vertex="1" parent="1">
          <mxGeometry x="730" y="310" width="90" height="50" as="geometry" />
        </mxCell>
        <mxCell id="lFiYnILtrFlmr6bZS0Fi-70" style="edgeStyle=orthogonalEdgeStyle;rounded=1;orthogonalLoop=1;jettySize=auto;html=1;entryX=0.5;entryY=1;entryDx=0;entryDy=0;labelBackgroundColor=none;strokeColor=#0B4D6A;fontColor=default;" edge="1" parent="1" source="lFiYnILtrFlmr6bZS0Fi-49" target="lFiYnILtrFlmr6bZS0Fi-66">
          <mxGeometry relative="1" as="geometry" />
        </mxCell>
        <mxCell id="lFiYnILtrFlmr6bZS0Fi-49" value="POWER" style="ellipse;whiteSpace=wrap;html=1;rounded=1;labelBackgroundColor=none;fillColor=#0050ef;strokeColor=#001DBC;fontColor=#ffffff;" vertex="1" parent="1">
          <mxGeometry x="730" y="390" width="90" height="50" as="geometry" />
        </mxCell>
        <mxCell id="lFiYnILtrFlmr6bZS0Fi-71" style="edgeStyle=orthogonalEdgeStyle;rounded=1;orthogonalLoop=1;jettySize=auto;html=1;labelBackgroundColor=none;strokeColor=#0B4D6A;fontColor=default;" edge="1" parent="1" source="lFiYnILtrFlmr6bZS0Fi-50">
          <mxGeometry relative="1" as="geometry">
            <mxPoint x="930" y="220" as="targetPoint" />
          </mxGeometry>
        </mxCell>
        <mxCell id="lFiYnILtrFlmr6bZS0Fi-50" value="ELECTRICITY&lt;div&gt;UNIT&lt;/div&gt;" style="ellipse;whiteSpace=wrap;html=1;rounded=1;labelBackgroundColor=none;fillColor=#1ba1e2;strokeColor=#006EAF;fontColor=#ffffff;" vertex="1" parent="1">
          <mxGeometry x="730" y="470" width="90" height="50" as="geometry" />
        </mxCell>
        <mxCell id="lFiYnILtrFlmr6bZS0Fi-64" style="edgeStyle=orthogonalEdgeStyle;rounded=1;orthogonalLoop=1;jettySize=auto;html=1;entryX=0.011;entryY=0.64;entryDx=0;entryDy=0;entryPerimeter=0;labelBackgroundColor=none;strokeColor=#0B4D6A;fontColor=default;" edge="1" parent="1" source="lFiYnILtrFlmr6bZS0Fi-10" target="lFiYnILtrFlmr6bZS0Fi-48">
          <mxGeometry relative="1" as="geometry" />
        </mxCell>
        <mxCell id="lFiYnILtrFlmr6bZS0Fi-72" style="edgeStyle=orthogonalEdgeStyle;rounded=1;orthogonalLoop=1;jettySize=auto;html=1;labelBackgroundColor=none;strokeColor=#0B4D6A;fontColor=default;" edge="1" parent="1" source="lFiYnILtrFlmr6bZS0Fi-66" target="lFiYnILtrFlmr6bZS0Fi-16">
          <mxGeometry relative="1" as="geometry" />
        </mxCell>
        <mxCell id="lFiYnILtrFlmr6bZS0Fi-66" value="GATEWAY" style="shape=trapezoid;perimeter=trapezoidPerimeter;whiteSpace=wrap;html=1;fixedSize=1;rounded=1;labelBackgroundColor=none;" vertex="1" parent="1">
          <mxGeometry x="870" y="160" width="120" height="60" as="geometry" />
        </mxCell>
        <mxCell id="lFiYnILtrFlmr6bZS0Fi-73" style="edgeStyle=orthogonalEdgeStyle;rounded=1;orthogonalLoop=1;jettySize=auto;html=1;exitX=0.55;exitY=0.95;exitDx=0;exitDy=0;exitPerimeter=0;entryX=0.592;entryY=0;entryDx=0;entryDy=0;entryPerimeter=0;labelBackgroundColor=none;strokeColor=#0B4D6A;fontColor=default;" edge="1" parent="1" source="lFiYnILtrFlmr6bZS0Fi-16" target="lFiYnILtrFlmr6bZS0Fi-66">
          <mxGeometry relative="1" as="geometry" />
        </mxCell>
        <mxCell id="lFiYnILtrFlmr6bZS0Fi-75" value="" style="endArrow=classic;startArrow=classic;html=1;rounded=1;labelBackgroundColor=none;strokeColor=#0B4D6A;fontColor=default;" edge="1" parent="1">
          <mxGeometry width="50" height="50" relative="1" as="geometry">
            <mxPoint x="830" y="510" as="sourcePoint" />
            <mxPoint x="940" y="220" as="targetPoint" />
            <Array as="points">
              <mxPoint x="940" y="510" />
            </Array>
          </mxGeometry>
        </mxCell>
        <mxCell id="lFiYnILtrFlmr6bZS0Fi-76" style="edgeStyle=orthogonalEdgeStyle;rounded=1;orthogonalLoop=1;jettySize=auto;html=1;entryX=0.995;entryY=0.582;entryDx=0;entryDy=0;entryPerimeter=0;labelBackgroundColor=none;strokeColor=#0B4D6A;fontColor=default;" edge="1" parent="1" source="lFiYnILtrFlmr6bZS0Fi-50" target="lFiYnILtrFlmr6bZS0Fi-10">
          <mxGeometry relative="1" as="geometry">
            <Array as="points">
              <mxPoint x="650" y="510" />
              <mxPoint x="650" y="388" />
            </Array>
          </mxGeometry>
        </mxCell>
        <mxCell id="lFiYnILtrFlmr6bZS0Fi-77" value="&lt;h1&gt;&lt;b&gt;&lt;font style=&quot;font-size: 14px;&quot; face=&quot;Times New Roman&quot;&gt;SMART ENERGY&amp;nbsp; METER AND PREPAID SYSTEM&lt;/font&gt;&lt;/b&gt;&lt;/h1&gt;" style="text;html=1;align=center;verticalAlign=middle;resizable=0;points=[];autosize=1;strokeColor=none;fillColor=none;rounded=1;labelBackgroundColor=none;fontColor=#EEEEEE;" vertex="1" parent="1">
          <mxGeometry x="290" y="660" width="350" height="80" as="geometry" />
        </mxCell>
        <mxCell id="-VY5PNW24U0dJ7d_eB_C-4" style="edgeStyle=orthogonalEdgeStyle;rounded=1;orthogonalLoop=1;jettySize=auto;html=1;labelBackgroundColor=none;strokeColor=#0B4D6A;fontColor=default;" edge="1" parent="1" source="-VY5PNW24U0dJ7d_eB_C-1" target="lFiYnILtrFlmr6bZS0Fi-2">
          <mxGeometry relative="1" as="geometry" />
        </mxCell>
        <mxCell id="-VY5PNW24U0dJ7d_eB_C-5" style="edgeStyle=orthogonalEdgeStyle;rounded=1;orthogonalLoop=1;jettySize=auto;html=1;exitX=1;exitY=0.5;exitDx=0;exitDy=0;entryX=0;entryY=0.5;entryDx=0;entryDy=0;labelBackgroundColor=none;strokeColor=#0B4D6A;fontColor=default;" edge="1" parent="1" source="-VY5PNW24U0dJ7d_eB_C-1" target="lFiYnILtrFlmr6bZS0Fi-3">
          <mxGeometry relative="1" as="geometry">
            <mxPoint x="60" y="240" as="targetPoint" />
            <Array as="points">
              <mxPoint x="60" y="350" />
              <mxPoint x="60" y="240" />
            </Array>
          </mxGeometry>
        </mxCell>
        <mxCell id="-VY5PNW24U0dJ7d_eB_C-6" style="edgeStyle=orthogonalEdgeStyle;rounded=1;orthogonalLoop=1;jettySize=auto;html=1;exitX=1;exitY=0.5;exitDx=0;exitDy=0;entryX=0;entryY=0.5;entryDx=0;entryDy=0;labelBackgroundColor=none;strokeColor=#0B4D6A;fontColor=default;" edge="1" parent="1" source="-VY5PNW24U0dJ7d_eB_C-1" target="lFiYnILtrFlmr6bZS0Fi-4">
          <mxGeometry relative="1" as="geometry">
            <mxPoint x="60" y="490" as="targetPoint" />
            <Array as="points">
              <mxPoint x="60" y="350" />
              <mxPoint x="60" y="440" />
            </Array>
          </mxGeometry>
        </mxCell>
        <mxCell id="-VY5PNW24U0dJ7d_eB_C-8" style="edgeStyle=orthogonalEdgeStyle;rounded=1;orthogonalLoop=1;jettySize=auto;html=1;exitX=1;exitY=0.5;exitDx=0;exitDy=0;entryX=0;entryY=0.5;entryDx=0;entryDy=0;labelBackgroundColor=none;strokeColor=#0B4D6A;fontColor=default;" edge="1" parent="1" source="-VY5PNW24U0dJ7d_eB_C-1" target="-VY5PNW24U0dJ7d_eB_C-7">
          <mxGeometry relative="1" as="geometry">
            <mxPoint x="60" y="560" as="targetPoint" />
            <Array as="points">
              <mxPoint x="60" y="350" />
              <mxPoint x="60" y="540" />
            </Array>
          </mxGeometry>
        </mxCell>
        <mxCell id="-VY5PNW24U0dJ7d_eB_C-1" value="PZEM MODULE" style="shape=hexagon;perimeter=hexagonPerimeter2;whiteSpace=wrap;html=1;fixedSize=1;rounded=1;labelBackgroundColor=none;fillColor=#f0a30a;strokeColor=#BD7000;fontColor=#000000;" vertex="1" parent="1">
          <mxGeometry x="-70" y="310" width="120" height="80" as="geometry" />
        </mxCell>
        <mxCell id="-VY5PNW24U0dJ7d_eB_C-3" style="edgeStyle=orthogonalEdgeStyle;rounded=1;orthogonalLoop=1;jettySize=auto;html=1;entryX=0.375;entryY=0;entryDx=0;entryDy=0;labelBackgroundColor=none;strokeColor=#0B4D6A;fontColor=default;" edge="1" parent="1" source="-VY5PNW24U0dJ7d_eB_C-2" target="-VY5PNW24U0dJ7d_eB_C-1">
          <mxGeometry relative="1" as="geometry">
            <mxPoint x="-20" y="300" as="targetPoint" />
          </mxGeometry>
        </mxCell>
        <mxCell id="-VY5PNW24U0dJ7d_eB_C-2" value="AC&amp;nbsp; INPUT" style="shape=hexagon;perimeter=hexagonPerimeter2;whiteSpace=wrap;html=1;fixedSize=1;rounded=1;labelBackgroundColor=none;fillColor=#e51400;strokeColor=#B20000;fontColor=#ffffff;" vertex="1" parent="1">
          <mxGeometry x="-80" y="140" width="120" height="80" as="geometry" />
        </mxCell>
        <mxCell id="-VY5PNW24U0dJ7d_eB_C-9" style="edgeStyle=orthogonalEdgeStyle;rounded=1;orthogonalLoop=1;jettySize=auto;html=1;exitX=1;exitY=0.5;exitDx=0;exitDy=0;entryX=-0.017;entryY=0.83;entryDx=0;entryDy=0;entryPerimeter=0;labelBackgroundColor=none;strokeColor=#0B4D6A;fontColor=default;" edge="1" parent="1" source="-VY5PNW24U0dJ7d_eB_C-7" target="lFiYnILtrFlmr6bZS0Fi-10">
          <mxGeometry relative="1" as="geometry">
            <mxPoint x="370" y="440" as="targetPoint" />
            <Array as="points">
              <mxPoint x="230" y="520" />
              <mxPoint x="330" y="520" />
              <mxPoint x="330" y="440" />
              <mxPoint x="370" y="440" />
              <mxPoint x="370" y="443" />
            </Array>
          </mxGeometry>
        </mxCell>
        <mxCell id="-VY5PNW24U0dJ7d_eB_C-7" value="FREQUENCY" style="shape=hexagon;perimeter=hexagonPerimeter2;whiteSpace=wrap;html=1;fixedSize=1;rounded=1;labelBackgroundColor=none;fillColor=#1ba1e2;strokeColor=#006EAF;fontColor=#ffffff;" vertex="1" parent="1">
          <mxGeometry x="110" y="500" width="120" height="80" as="geometry" />
        </mxCell>
      </root>
    </mxGraphModel>
  </diagram>
</mxfile>
